<svg viewBox="0 0 20 20" fill="none" xmlns="http://www.w3.org/2000/svg" x="0" y="0"><path id="Vector_4" d="M7.188,0c1.207,0 2.187,0.98 2.187,2.188v15.624c0,1.208 -0.98,2.188 -2.187,2.188c-1.129,0 -2.059,-0.855 -2.176,-1.957c-0.203,0.055 -0.418,0.082 -0.637,0.082c-1.379,0 -2.5,-1.121 -2.5,-2.5c0,-0.289 0.051,-0.57 0.141,-0.828c-1.18,-0.445 -2.016,-1.586 -2.016,-2.922c0,-1.246 0.73,-2.324 1.789,-2.824c-0.34,-0.426 -0.539,-0.965 -0.539,-1.551c0,-1.199 0.844,-2.199 1.969,-2.445c-0.063,-0.215 -0.094,-0.446 -0.094,-0.68c0,-1.168 0.805,-2.152 1.887,-2.426c0.117,-1.094 1.047,-1.949 2.176,-1.949zM12.812,0c1.129,0 2.055,0.855 2.176,1.949c1.086,0.274 1.887,1.254 1.887,2.426c0,0.234 -0.031,0.465 -0.094,0.68c1.125,0.242 1.969,1.246 1.969,2.445c0,0.586 -0.199,1.125 -0.539,1.551c1.059,0.5 1.789,1.578 1.789,2.824c0,1.336 -0.836,2.477 -2.016,2.922c0.09,0.258 0.141,0.539 0.141,0.828c0,1.379 -1.121,2.5 -2.5,2.5c-0.219,0 -0.434,-0.027 -0.637,-0.082c-0.117,1.102 -1.047,1.957 -2.176,1.957c-1.207,0 -2.187,-0.98 -2.187,-2.188v-15.624c0,-1.208 0.98,-2.188 2.187,-2.188z" fill="currentColor"/></svg>