<svg viewBox="0 0 15 20" fill="none" xmlns="http://www.w3.org/2000/svg" x="0" y="0"><path id="Vector_18" d="M2.5,0c-1.379,0 -2.5,1.12 -2.5,2.5v15c0,1.38 1.121,2.5 2.5,2.5h10c1.38,0 2.5,-1.12 2.5,-2.5v-15c0,-1.38 -1.12,-2.5 -2.5,-2.5zM3.75,2.5h7.5c0.69,0 1.25,0.56 1.25,1.25v1.25c0,0.69 -0.56,1.25 -1.25,1.25h-7.5c-0.691,0 -1.25,-0.56 -1.25,-1.25v-1.25c0,-0.69 0.559,-1.25 1.25,-1.25zM5,8.75c0,0.33 -0.132,0.65 -0.366,0.88c-0.235,0.24 -0.552,0.37 -0.884,0.37c-0.332,0 -0.649,-0.13 -0.884,-0.37c-0.234,-0.23 -0.366,-0.55 -0.366,-0.88c0,-0.33 0.132,-0.65 0.366,-0.88c0.235,-0.24 0.552,-0.37 0.884,-0.37c0.332,0 0.649,0.13 0.884,0.37c0.234,0.23 0.366,0.55 0.366,0.88zM3.75,13.75c-0.332,0 -0.649,-0.13 -0.884,-0.37c-0.234,-0.23 -0.366,-0.55 -0.366,-0.88c0,-0.33 0.132,-0.65 0.366,-0.88c0.235,-0.24 0.552,-0.37 0.884,-0.37c0.332,0 0.649,0.13 0.884,0.37c0.234,0.23 0.366,0.55 0.366,0.88c0,0.33 -0.132,0.65 -0.366,0.88c-0.235,0.24 -0.552,0.37 -0.884,0.37zM2.5,16.25c0,-0.69 0.559,-1.25 1.25,-1.25h3.75c0.69,0 1.25,0.56 1.25,1.25c0,0.69 -0.56,1.25 -1.25,1.25h-3.75c-0.691,0 -1.25,-0.56 -1.25,-1.25zM7.5,10c-0.332,0 -0.649,-0.13 -0.884,-0.37c-0.234,-0.23 -0.366,-0.55 -0.366,-0.88c0,-0.33 0.132,-0.65 0.366,-0.88c0.235,-0.24 0.552,-0.37 0.884,-0.37c0.332,0 0.65,0.13 0.88,0.37c0.24,0.23 0.37,0.55 0.37,0.88c0,0.33 -0.13,0.65 -0.37,0.88c-0.23,0.24 -0.548,0.37 -0.88,0.37zM8.75,12.5c0,0.33 -0.13,0.65 -0.37,0.88c-0.23,0.24 -0.548,0.37 -0.88,0.37c-0.332,0 -0.649,-0.13 -0.884,-0.37c-0.234,-0.23 -0.366,-0.55 -0.366,-0.88c0,-0.33 0.132,-0.65 0.366,-0.88c0.235,-0.24 0.552,-0.37 0.884,-0.37c0.332,0 0.65,0.13 0.88,0.37c0.24,0.23 0.37,0.55 0.37,0.88zM11.25,10c-0.33,0 -0.65,-0.13 -0.88,-0.37c-0.24,-0.23 -0.37,-0.55 -0.37,-0.88c0,-0.33 0.13,-0.65 0.37,-0.88c0.23,-0.24 0.55,-0.37 0.88,-0.37c0.33,0 0.65,0.13 0.88,0.37c0.24,0.23 0.37,0.55 0.37,0.88c0,0.33 -0.13,0.65 -0.37,0.88c-0.23,0.24 -0.55,0.37 -0.88,0.37zM12.5,12.5c0,0.33 -0.13,0.65 -0.37,0.88c-0.23,0.24 -0.55,0.37 -0.88,0.37c-0.33,0 -0.65,-0.13 -0.88,-0.37c-0.24,-0.23 -0.37,-0.55 -0.37,-0.88c0,-0.33 0.13,-0.65 0.37,-0.88c0.23,-0.24 0.55,-0.37 0.88,-0.37c0.33,0 0.65,0.13 0.88,0.37c0.24,0.23 0.37,0.55 0.37,0.88zM11.25,17.5c-0.33,0 -0.65,-0.13 -0.88,-0.37c-0.24,-0.23 -0.37,-0.55 -0.37,-0.88c0,-0.33 0.13,-0.65 0.37,-0.88c0.23,-0.24 0.55,-0.37 0.88,-0.37c0.33,0 0.65,0.13 0.88,0.37c0.24,0.23 0.37,0.55 0.37,0.88c0,0.33 -0.13,0.65 -0.37,0.88c-0.23,0.24 -0.55,0.37 -0.88,0.37z" fill="currentColor"/></svg>