<svg viewBox="0 0 16 16" fill="none" xmlns="http://www.w3.org/2000/svg" x="0" y="0"><path id="Vector_24" d="M8,16c2.122,0 4.157,-0.84 5.657,-2.34c1.5,-1.5 2.343,-3.54 2.343,-5.66c0,-2.12 -0.843,-4.16 -2.343,-5.66c-1.5,-1.5 -3.535,-2.34 -5.657,-2.34c-2.122,0 -4.157,0.84 -5.657,2.34c-1.5,1.5 -2.343,3.54 -2.343,5.66c0,2.12 0.843,4.16 2.343,5.66c1.5,1.5 3.535,2.34 5.657,2.34zM11.531,6.53l-4,4c-0.293,0.29 -0.768,0.29 -1.059,0l-2,-2c-0.294,-0.29 -0.294,-0.77 0,-1.06c0.294,-0.29 0.769,-0.29 1.059,0l1.469,1.47l3.469,-3.47c0.293,-0.29 0.769,-0.29 1.059,0c0.291,0.29 0.294,0.77 0,1.06z" fill="currentColor"/></svg>