<svg viewBox="0 0 15 20" fill="none" xmlns="http://www.w3.org/2000/svg" x="0" y="0"><path id="Vector_17" d="M7.5,0c-1.633,0 -3.023,1.04 -3.535,2.5h-1.465c-1.379,0 -2.5,1.12 -2.5,2.5v12.5c0,1.38 1.121,2.5 2.5,2.5h10c1.379,0 2.5,-1.12 2.5,-2.5v-12.5c0,-1.38 -1.121,-2.5 -2.5,-2.5h-1.465c-0.512,-1.46 -1.902,-2.5 -3.535,-2.5zM7.5,2.5c0.332,0 0.649,0.13 0.884,0.37c0.234,0.23 0.366,0.55 0.366,0.88c0,0.33 -0.132,0.65 -0.366,0.88c-0.235,0.24 -0.552,0.37 -0.884,0.37c-0.332,0 -0.649,-0.13 -0.884,-0.37c-0.234,-0.23 -0.366,-0.55 -0.366,-0.88c0,-0.33 0.132,-0.65 0.366,-0.88c0.235,-0.24 0.552,-0.37 0.884,-0.37zM11.914,10.66l-5,5c-0.367,0.37 -0.961,0.37 -1.324,0l-2.504,-2.5c-0.367,-0.36 -0.367,-0.96 0,-1.32c0.367,-0.36 0.961,-0.37 1.324,0l1.836,1.84l4.34,-4.34c0.367,-0.37 0.961,-0.37 1.324,0c0.363,0.36 0.367,0.96 0,1.32z" fill="currentColor"/></svg>