<svg viewBox="0 0 24 21" fill="none" xmlns="http://www.w3.org/2000/svg" x="0" y="0"><path id="Vector_20" d="M1.5,0c0.83,0 1.5,0.67 1.5,1.5v15.75c0,0.41 0.338,0.75 0.75,0.75h18.75c0.83,0 1.5,0.67 1.5,1.5c0,0.83 -0.67,1.5 -1.5,1.5h-18.75c-2.072,0 -3.75,-1.68 -3.75,-3.75v-15.75c0,-0.83 0.67,-1.5 1.5,-1.5zM6,4.5c0,-0.83 0.67,-1.5 1.5,-1.5h9c0.83,0 1.5,0.67 1.5,1.5c0,0.83 -0.67,1.5 -1.5,1.5h-9c-0.83,0 -1.5,-0.67 -1.5,-1.5zM7.5,7.5h6c0.83,0 1.5,0.67 1.5,1.5c0,0.83 -0.67,1.5 -1.5,1.5h-6c-0.83,0 -1.5,-0.67 -1.5,-1.5c0,-0.83 0.67,-1.5 1.5,-1.5zM7.5,12h12c0.83,0 1.5,0.67 1.5,1.5c0,0.83 -0.67,1.5 -1.5,1.5h-12c-0.83,0 -1.5,-0.67 -1.5,-1.5c0,-0.83 0.67,-1.5 1.5,-1.5z" fill="currentColor"/></svg>