<svg viewBox="0 0 23.9983 21" fill="none" xmlns="http://www.w3.org/2000/svg" x="0" y="0"><path id="Vector_23" d="M11.9983,0c0.666,0 1.28,0.35 1.617,0.93l10.125,17.25c0.342,0.58 0.342,1.3 0.01,1.88c-0.333,0.58 -0.957,0.94 -1.627,0.94h-20.25c-0.67,0 -1.294,-0.36 -1.627,-0.94c-0.332,-0.58 -0.328,-1.31 0.01,-1.88l10.125,-17.25c0.337,-0.58 0.951,-0.93 1.617,-0.93zM11.9983,6c-0.623,0 -1.125,0.5 -1.125,1.12v5.26c0,0.62 0.502,1.12 1.125,1.12c0.623,0 1.125,-0.5 1.125,-1.12v-5.26c0,-0.62 -0.502,-1.12 -1.125,-1.12zM13.4983,16.5c0,-0.4 -0.158,-0.78 -0.439,-1.06c-0.282,-0.28 -0.663,-0.44 -1.061,-0.44c-0.398,0 -0.779,0.16 -1.061,0.44c-0.281,0.28 -0.439,0.66 -0.439,1.06c0,0.4 0.158,0.78 0.439,1.06c0.282,0.28 0.663,0.44 1.061,0.44c0.398,0 0.779,-0.16 1.061,-0.44c0.281,-0.28 0.439,-0.66 0.439,-1.06z" fill="currentColor"/></svg>