<svg viewBox="0 0 24 24" fill="none" xmlns="http://www.w3.org/2000/svg" x="0" y="0"><path id="Vector_21" d="M8.625,0c1.448,0 2.625,1.18 2.625,2.62v18.76c0,1.44 -1.177,2.62 -2.625,2.62c-1.355,0 -2.47,-1.03 -2.611,-2.35c-0.244,0.07 -0.502,0.1 -0.764,0.1c-1.655,0 -3,-1.35 -3,-3c0,-0.35 0.061,-0.68 0.169,-0.99c-1.416,-0.54 -2.419,-1.91 -2.419,-3.51c0,-1.5 0.877,-2.79 2.147,-3.39c-0.408,-0.51 -0.647,-1.16 -0.647,-1.86c0,-1.44 1.013,-2.64 2.363,-2.93c-0.075,-0.26 -0.113,-0.54 -0.113,-0.82c0,-1.4 0.966,-2.58 2.264,-2.91c0.141,-1.31 1.256,-2.34 2.611,-2.34zM15.375,0c1.355,0 2.466,1.03 2.611,2.34c1.303,0.33 2.264,1.5 2.264,2.91c0,0.28 -0.038,0.56 -0.112,0.82c1.35,0.29 2.362,1.49 2.362,2.93c0,0.7 -0.239,1.35 -0.647,1.86c1.27,0.6 2.147,1.89 2.147,3.39c0,1.6 -1.003,2.97 -2.419,3.51c0.108,0.31 0.169,0.64 0.169,0.99c0,1.65 -1.345,3 -3,3c-0.263,0 -0.52,-0.03 -0.764,-0.1c-0.141,1.32 -1.256,2.35 -2.611,2.35c-1.448,0 -2.625,-1.18 -2.625,-2.62v-18.76c0,-1.44 1.177,-2.62 2.625,-2.62z" fill="currentColor"/></svg>