<svg viewBox="0 0 24 21" fill="none" xmlns="http://www.w3.org/2000/svg" x="0" y="0"><path id="Vector_12" d="M3,1.5c0,-0.83 -0.67,-1.5 -1.5,-1.5c-0.83,0 -1.5,0.67 -1.5,1.5v15.75c0,2.07 1.678,3.75 3.75,3.75h18.75c0.83,0 1.5,-0.67 1.5,-1.5c0,-0.83 -0.67,-1.5 -1.5,-1.5h-18.75c-0.412,0 -0.75,-0.34 -0.75,-0.75zM22.059,5.56c0.586,-0.59 0.586,-1.54 0,-2.12c-0.586,-0.59 -1.537,-0.59 -2.123,0l-4.936,4.94l-2.691,-2.69c-0.586,-0.59 -1.537,-0.59 -2.123,0l-5.25,5.25c-0.586,0.58 -0.586,1.53 0,2.12c0.586,0.59 1.537,0.59 2.123,0l4.191,-4.19l2.691,2.69c0.586,0.59 1.537,0.59 2.123,0l6,-6z" fill="currentColor"/></svg>