<svg viewBox="0 0 17.0256 10.2266" fill="none" xmlns="http://www.w3.org/2000/svg" x="0" y="0"><path id="Vector_7" fill-rule="evenodd" clip-rule="evenodd" d="M0.3902,0.3874c0.244,-0.24 0.57,-0.37 0.908,-0.36c0.338,0.01 0.659,0.15 0.894,0.39l6.307,6.7l6.307,-6.7c0.115,-0.13 0.253,-0.23 0.408,-0.3c0.155,-0.07 0.323,-0.11 0.493,-0.12c0.171,0 0.341,0.03 0.5,0.09c0.159,0.06 0.305,0.15 0.428,0.27c0.123,0.12 0.221,0.26 0.288,0.42c0.067,0.15 0.102,0.32 0.102,0.49c0.001,0.17 -0.033,0.34 -0.098,0.5c-0.066,0.16 -0.163,0.3 -0.285,0.42l-7.225,7.65c-0.119,0.12 -0.262,0.22 -0.419,0.29c-0.158,0.06 -0.328,0.1 -0.499,0.1c-0.171,0 -0.341,-0.04 -0.499,-0.1c-0.157,-0.07 -0.3,-0.17 -0.419,-0.29l-7.225,-7.65c-0.234,-0.24 -0.362,-0.57 -0.356,-0.91c0.006,-0.34 0.147,-0.66 0.39,-0.89z" fill="currentColor"/></svg>