<svg viewBox="0 0 17.5 20" fill="none" xmlns="http://www.w3.org/2000/svg" x="0" y="0"><path id="Vector_3" d="M17.5,3.125v1.875c0,1.727 -3.918,3.125 -8.75,3.125c-4.832,0 -8.75,-1.398 -8.75,-3.125v-1.875c0,-1.727 3.918,-3.125 8.75,-3.125c4.832,0 8.75,1.398 8.75,3.125zM15.359,8.387c0.813,-0.289 1.559,-0.66 2.141,-1.117v3.98c0,1.727 -3.918,3.125 -8.75,3.125c-4.832,0 -8.75,-1.398 -8.75,-3.125v-3.98c0.582,0.46 1.328,0.828 2.141,1.117c1.754,0.625 4.089,0.988 6.609,0.988c2.52,0 4.855,-0.363 6.609,-0.988zM0,13.52c0.582,0.46 1.328,0.828 2.141,1.117c1.754,0.625 4.089,0.988 6.609,0.988c2.52,0 4.855,-0.363 6.609,-0.988c0.813,-0.289 1.559,-0.66 2.141,-1.117v3.355c0,1.727 -3.918,3.125 -8.75,3.125c-4.832,0 -8.75,-1.398 -8.75,-3.125z" fill="currentColor"/></svg>