<svg viewBox="0 0 21 24" fill="none" xmlns="http://www.w3.org/2000/svg" x="0" y="0"><path id="Vector_19" d="M21,3.75v2.25c0,2.07 -4.702,3.75 -10.5,3.75c-5.798,0 -10.5,-1.68 -10.5,-3.75v-2.25c0,-2.07 4.702,-3.75 10.5,-3.75c5.798,0 10.5,1.68 10.5,3.75zM18.431,10.06c0.975,-0.34 1.871,-0.79 2.569,-1.34v4.78c0,2.07 -4.702,3.75 -10.5,3.75c-5.798,0 -10.5,-1.68 -10.5,-3.75v-4.78c0.698,0.56 1.594,1 2.569,1.34c2.104,0.75 4.908,1.19 7.931,1.19c3.023,0 5.827,-0.44 7.931,-1.19zM0,16.22c0.698,0.56 1.594,1 2.569,1.34c2.104,0.75 4.908,1.19 7.931,1.19c3.023,0 5.827,-0.44 7.931,-1.19c0.975,-0.34 1.871,-0.79 2.569,-1.34v4.03c0,2.07 -4.702,3.75 -10.5,3.75c-5.798,0 -10.5,-1.68 -10.5,-3.75z" fill="currentColor"/></svg>