<svg viewBox="0 0 18 15.75" fill="none" xmlns="http://www.w3.org/2000/svg" x="0" y="0"><path id="Vector_29" d="M2.25,1.125c0,-0.6223 -0.503,-1.125 -1.125,-1.125c-0.622,0 -1.125,0.5027 -1.125,1.125v11.8125c0,1.5539 1.259,2.8125 2.812,2.8125h14.063c0.622,0 1.125,-0.5027 1.125,-1.125c0,-0.6223 -0.503,-1.125 -1.125,-1.125h-14.063c-0.309,0 -0.562,-0.2531 -0.562,-0.5625zM16.545,4.1695c0.439,-0.4394 0.439,-1.1531 0,-1.5925c-0.44,-0.4395 -1.154,-0.4395 -1.593,0l-3.702,3.7054l-2.018,-2.0179c-0.439,-0.4395 -1.153,-0.4395 -1.593,0l-3.937,3.9375c-0.439,0.4394 -0.439,1.1531 0,1.5925c0.439,0.4395 1.153,0.4395 1.593,0l3.143,-3.1394l2.017,2.0179c0.44,0.4395 1.154,0.4395 1.593,0l4.5,-4.5z" fill="currentColor"/></svg>