<svg viewBox="0 0 20 17.5" fill="none" xmlns="http://www.w3.org/2000/svg" x="0" y="0"><path id="Vector_5" d="M2.5,1.25c0,-0.691 -0.559,-1.25 -1.25,-1.25c-0.691,0 -1.25,0.559 -1.25,1.25v13.125c0,1.727 1.398,3.125 3.125,3.125h15.625c0.691,0 1.25,-0.559 1.25,-1.25c0,-0.691 -0.559,-1.25 -1.25,-1.25h-15.625c-0.344,0 -0.625,-0.281 -0.625,-0.625zM18.383,4.633c0.488,-0.488 0.488,-1.281 0,-1.77c-0.488,-0.488 -1.281,-0.488 -1.77,0l-4.113,4.117l-2.242,-2.242c-0.488,-0.488 -1.281,-0.488 -1.77,0l-4.375,4.375c-0.488,0.489 -0.488,1.282 0,1.77c0.489,0.488 1.282,0.488 1.77,0l3.492,-3.488l2.242,2.242c0.488,0.488 1.281,0.488 1.77,0l5,-5z" fill="currentColor"/></svg>