<svg viewBox="0 0 19.999 20" fill="none" xmlns="http://www.w3.org/2000/svg" x="0" y="0"><path id="Vector_6" d="M16.25,8.12c0,1.8 -0.58,3.45 -1.56,4.8l4.94,4.95c0.49,0.49 0.49,1.28 0,1.77c-0.49,0.48 -1.28,0.48 -1.77,0l-4.94,-4.95c-1.35,0.98 -3,1.56 -4.8,1.56c-4.48,0 -8.12,-3.64 -8.12,-8.13c0,-4.48 3.64,-8.12 8.12,-8.12c4.49,0 8.13,3.64 8.13,8.12zM8.12,13.75c0.74,0 1.48,-0.15 2.16,-0.43c0.68,-0.28 1.3,-0.7 1.82,-1.22c0.52,-0.52 0.94,-1.14 1.22,-1.82c0.28,-0.68 0.43,-1.42 0.43,-2.16c0,-0.73 -0.15,-1.47 -0.43,-2.15c-0.28,-0.68 -0.7,-1.3 -1.22,-1.82c-0.52,-0.52 -1.14,-0.94 -1.82,-1.22c-0.68,-0.28 -1.42,-0.43 -2.16,-0.43c-0.73,0 -1.47,0.15 -2.15,0.43c-0.68,0.28 -1.3,0.7 -1.82,1.22c-0.52,0.52 -0.94,1.14 -1.22,1.82c-0.28,0.68 -0.43,1.42 -0.43,2.15c0,0.74 0.15,1.48 0.43,2.16c0.28,0.68 0.7,1.3 1.22,1.82c0.52,0.52 1.14,0.94 1.82,1.22c0.68,0.28 1.42,0.43 2.15,0.43z" fill="currentColor"/></svg>