<svg viewBox="0 0 17.9991 18" fill="none" xmlns="http://www.w3.org/2000/svg" x="0" y="0"><path id="Vector" d="M14.625,7.312c0,1.614 -0.524,3.105 -1.406,4.314l4.451,4.454c0.439,0.44 0.439,1.154 0,1.593c-0.44,0.44 -1.154,0.44 -1.593,0l-4.451,-4.454c-1.209,0.886 -2.7,1.406 -4.314,1.406c-4.039,0 -7.312,-3.273 -7.312,-7.313c0,-4.039 3.273,-7.312 7.312,-7.312c4.04,0 7.313,3.273 7.313,7.312zM7.312,12.375c0.665,0 1.324,-0.131 1.938,-0.385c0.614,-0.255 1.172,-0.628 1.642,-1.098c0.47,-0.47 0.843,-1.028 1.098,-1.642c0.254,-0.614 0.385,-1.273 0.385,-1.938c0,-0.664 -0.131,-1.323 -0.385,-1.937c-0.255,-0.614 -0.628,-1.172 -1.098,-1.642c-0.47,-0.47 -1.028,-0.843 -1.642,-1.098c-0.614,-0.254 -1.273,-0.385 -1.938,-0.385c-0.664,0 -1.323,0.131 -1.937,0.385c-0.614,0.255 -1.172,0.628 -1.642,1.098c-0.47,0.47 -0.843,1.028 -1.098,1.642c-0.254,0.614 -0.385,1.273 -0.385,1.937c0,0.665 0.131,1.324 0.385,1.938c0.255,0.614 0.628,1.172 1.098,1.642c0.47,0.47 1.028,0.843 1.642,1.098c0.614,0.254 1.273,0.385 1.937,0.385z" fill="currentColor"/></svg>