<svg viewBox="0 0 22.5 12.499" fill="none" xmlns="http://www.w3.org/2000/svg" x="0" y="0"><path id="Vector_13" d="M15,2.5c-0.691,0 -1.25,-0.56 -1.25,-1.25c0,-0.69 0.559,-1.25 1.25,-1.25h6.25c0.691,0 1.25,0.56 1.25,1.25v6.25c0,0.69 -0.559,1.25 -1.25,1.25c-0.691,0 -1.25,-0.56 -1.25,-1.25v-3.23l-6.617,6.61c-0.488,0.49 -1.281,0.49 -1.77,0l-4.113,-4.11l-5.367,5.36c-0.488,0.49 -1.281,0.49 -1.77,0c-0.488,-0.49 -0.488,-1.28 0,-1.77l6.25,-6.25c0.489,-0.48 1.282,-0.48 1.77,0l4.117,4.12l5.73,-5.73z" fill="currentColor"/></svg>